<svg width="186" height="467" viewBox="0 0 186 467" fill="none" xmlns="http://www.w3.org/2000/svg">
<path d="M15.8948 465.884C11.7988 465.884 7.96892 464.279 5.10992 461.363C2.24992 458.446 0.717904 454.585 0.797904 450.489L3.18487 329.049H3.05694L3.07085 328.285C4.03985 276.032 5.01092 223.365 5.98492 170.325L5.99883 169.589H6.2149L6.22784 168.568L6.23687 168.514C6.58687 166.332 7.5929 164.368 9.1469 162.832C10.7959 161.204 11.7199 159.03 11.7499 156.71C11.7789 154.394 10.9119 152.224 9.30889 150.599C7.78789 149.058 6.82982 147.09 6.53582 144.906L6.52788 144.851L6.56487 141.981L6.5739 141.927C6.9209 139.748 7.92782 137.783 9.48382 136.245C12.8998 132.87 12.9729 127.383 9.64593 124.013C8.23093 122.581 7.29693 120.737 6.94793 118.68L6.93584 118.611L7.19488 104.419C7.35588 95.7013 14.1869 85.8043 22.1109 82.8053C35.1309 77.9343 48.7309 74.4073 62.5499 72.3163C62.5319 72.1843 62.5269 72.0503 62.5329 71.9143L64.0229 38.8703C64.0809 37.5803 65.1779 36.5303 66.4699 36.5303H68.2178C68.7268 36.5303 69.1949 36.1013 69.2399 35.5943L72.1419 3.08228C72.2539 1.81328 73.3829 0.780273 74.6589 0.780273H110.799C112.072 0.780273 113.201 1.8123 113.316 3.0813L116.217 35.5943C116.263 36.1013 116.731 36.5303 117.238 36.5303H118.985C120.276 36.5303 121.374 37.5803 121.431 38.8703L122.923 71.9143C122.93 72.0503 122.924 72.1843 122.906 72.3163C136.725 74.4073 150.326 77.9353 163.345 82.8043C171.27 85.8033 178.1 95.7003 178.262 104.419L178.521 118.617L178.509 118.686C178.16 120.738 177.229 122.58 175.814 124.013C172.487 127.384 172.559 132.871 175.975 136.245C177.534 137.785 178.539 139.75 178.884 141.928L178.892 141.981L178.931 144.851L178.923 144.906C178.629 147.09 177.67 149.059 176.151 150.599C174.547 152.224 173.678 154.394 173.708 156.71C173.737 159.03 174.661 161.204 176.311 162.832C177.867 164.368 178.873 166.333 179.222 168.514L179.231 168.569L179.243 169.59H179.459L182.398 329.05H182.273L184.66 450.46C184.74 454.582 183.209 458.443 180.348 461.359C177.488 464.276 173.657 465.882 169.561 465.882H16.2609L15.8948 465.884ZM141.895 177.574C133.432 177.574 126.547 184.459 126.547 192.922V272.682C126.547 281.145 133.432 288.03 141.895 288.03C150.358 288.03 157.244 281.145 157.244 272.682V192.922C157.244 184.462 150.344 177.572 141.944 177.572L141.895 177.574Z" fill="#C8C3C1"/>
<path d="M110.794 1.52402C111.686 1.52402 112.483 2.25201 112.564 3.14301L115.465 35.655C115.545 36.546 116.339 37.274 117.234 37.274H118.981C119.876 37.274 120.638 38.005 120.678 38.898L122.17 71.942C122.187 72.308 122.074 72.644 121.879 72.916C135.858 74.966 149.673 78.486 163.079 83.501C170.963 86.484 177.356 96.24 177.509 104.427C177.594 109.148 177.682 113.84 177.767 118.555C177.46 120.361 176.65 122.09 175.277 123.481C171.67 127.135 171.744 133.118 175.445 136.774C176.94 138.252 177.835 140.109 178.14 142.041L178.177 144.802C177.917 146.733 177.072 148.591 175.614 150.069C172.004 153.725 172.078 159.708 175.78 163.362C177.277 164.84 178.17 166.699 178.478 168.629L178.498 170.336H178.719C179.694 223.37 180.665 276.036 181.631 328.296H181.505L183.906 450.476V450.503C184.063 458.55 177.606 465.134 169.557 465.134H15.8872C7.83717 465.134 1.38312 458.55 1.54012 450.503V450.476L3.94112 328.296H3.81222C4.78122 276.043 5.75216 223.376 6.72616 170.336H6.94613L6.96712 168.629C7.27712 166.7 8.16814 164.84 9.66414 163.362C13.3651 159.708 13.4411 153.725 9.83114 150.069C8.37314 148.591 7.52715 146.734 7.26815 144.802L7.30318 142.041C7.61118 140.11 8.5042 138.252 10.0002 136.774C13.7012 133.118 13.7751 127.135 10.1691 123.481C8.79415 122.09 7.98323 120.358 7.67623 118.549C7.76223 113.836 7.84816 109.146 7.93416 104.427C8.08516 96.24 14.4822 86.484 22.3662 83.501C35.7702 78.486 49.5852 74.966 63.5632 72.916C63.3682 72.644 63.2552 72.308 63.2722 71.942L64.7622 38.898C64.8022 38.005 65.5672 37.274 66.4602 37.274H68.2082C69.1022 37.274 69.8972 36.546 69.9782 35.655L72.8802 3.14301C72.9592 2.25201 73.7562 1.52402 74.6502 1.52402H110.75M141.85 288.784C150.705 288.784 157.949 281.54 157.949 272.686V192.926C157.949 184.072 150.706 176.828 141.85 176.828C132.997 176.828 125.752 184.072 125.752 192.926V272.686C125.752 281.536 132.952 288.786 141.852 288.786M110.752 0.026001H74.6121C72.9301 0.026001 71.4972 1.33802 71.3482 3.01202L68.4461 35.524C68.4351 35.641 68.2892 35.776 68.1712 35.776H66.4232C64.7352 35.776 63.3021 37.147 63.2271 38.832L61.7462 71.669C48.0972 73.78 34.6672 77.286 21.8042 82.098C13.6162 85.196 6.56515 95.408 6.39815 104.401L6.25619 112.179L6.14022 118.523L6.13814 118.664L6.16122 118.802C6.53722 121.011 7.54112 122.995 9.06612 124.537C12.1011 127.612 12.0311 132.624 8.91012 135.708C7.23812 137.359 6.15812 139.468 5.78512 141.806L5.76815 141.913L5.7662 142.022L5.73116 144.783L5.73019 144.893L5.7452 145.002C6.0602 147.348 7.09213 149.465 8.72713 151.122C10.1891 152.603 10.9802 154.582 10.9532 156.697C10.9272 158.818 10.0822 160.806 8.57418 162.294C6.90518 163.942 5.82518 166.05 5.44918 168.39L5.43221 168.499L5.43014 168.609L5.42721 168.835H5.21615L5.18917 170.308C4.21517 223.342 3.24423 276.008 2.27523 328.268L2.24715 329.796H2.3752L0.00313401 450.446V450.503C-0.080866 454.773 1.52616 458.825 4.52816 461.887C7.53016 464.949 11.5502 466.634 15.8492 466.634H169.519C173.818 466.634 177.839 464.947 180.842 461.886C183.844 458.824 185.451 454.772 185.367 450.474L182.996 329.794H183.12L183.092 328.266C182.126 276.013 181.154 223.346 180.18 170.306L180.153 168.834H179.942L179.94 168.61L179.939 168.499L179.921 168.39C179.547 166.051 178.466 163.942 176.795 162.293C175.287 160.805 174.442 158.817 174.416 156.696C174.39 154.582 175.181 152.602 176.643 151.121C178.279 149.464 179.31 147.347 179.625 145.001L179.64 144.891L179.639 144.781L179.602 142.02L179.6 141.912L179.583 141.806C179.213 139.469 178.134 137.36 176.461 135.707C173.338 132.623 173.27 127.611 176.306 124.535C177.83 122.992 178.833 121.011 179.207 118.806L179.23 118.668L179.228 118.528L179.101 111.575L178.97 104.4C178.802 95.405 171.75 85.193 163.572 82.098C150.701 77.284 137.269 73.777 123.621 71.667L122.138 38.83C122.063 37.145 120.629 35.774 118.943 35.774H117.196C117.079 35.774 116.932 35.639 116.922 35.521L114.021 3.01001C113.721 1.32001 112.221 0 110.621 0L110.752 0.026001ZM141.852 287.286C133.803 287.286 127.254 280.738 127.254 272.688V192.928C127.254 184.879 133.803 178.33 141.852 178.33C149.902 178.33 156.451 184.879 156.451 192.928V272.688C156.451 280.738 149.851 287.288 141.851 287.288L141.852 287.286Z" fill="#1D3565"/>
<path d="M181.495 328.294H181.621C180.655 276.041 179.683 223.374 178.709 170.334H178.488L178.468 168.627C178.159 166.698 177.267 164.838 175.77 163.36C172.068 159.706 171.994 153.723 175.604 150.067C177.062 148.589 177.908 146.732 178.167 144.8L178.13 142.039C177.824 140.108 176.93 138.25 175.435 136.772C171.734 133.116 171.66 127.133 175.267 123.479C176.64 122.088 177.451 120.359 177.757 118.553C177.672 113.838 177.584 109.146 177.499 104.425C177.347 96.2381 170.953 86.4821 163.069 83.4991C117.718 66.5341 67.708 66.5341 22.359 83.4991C14.475 86.4821 8.07912 96.2381 7.92712 104.425C7.84112 109.144 7.75506 113.834 7.66906 118.547C7.97706 120.356 8.78711 122.088 10.1621 123.479C13.7681 127.133 13.694 133.116 9.99304 136.772C8.49704 138.25 7.60302 140.107 7.29602 142.039L7.26111 144.8C7.52111 146.731 8.36609 148.589 9.82409 150.067C13.4341 153.723 13.3581 159.706 9.6571 163.36C8.1611 164.838 7.26908 166.697 6.96008 168.627L6.93908 170.334H6.71911C5.74511 223.368 4.77405 276.034 3.80505 328.294H3.93408L1.53308 450.474V450.501C1.37608 458.548 7.83012 465.132 15.8801 465.132H169.55C177.599 465.132 184.056 458.548 183.899 450.501V450.474L181.499 328.304L181.495 328.294ZM157.995 272.684C157.995 281.538 150.752 288.782 141.896 288.782C133.043 288.782 125.798 281.538 125.798 272.684V192.924C125.798 184.07 133.043 176.826 141.896 176.826C150.751 176.826 157.995 184.07 157.995 192.924V272.684Z" stroke="#1D3565" stroke-width="2"/>
<path d="M159.795 332.684C159.55 320.614 149.474 310.737 137.399 310.737H125.809C113.735 310.737 103.856 300.858 103.856 288.784V208.22C103.856 196.147 94.0616 187.549 82.0886 189.114L49.9946 193.311C38.0226 194.876 28.0366 206.034 27.8026 218.106L24.0765 410.986C23.8395 423.056 33.5246 432.933 45.5986 432.933H139.865C151.939 432.933 161.618 423.056 161.375 410.986L159.875 332.686L159.795 332.684Z" stroke="#1D3565" stroke-width="2"/>
<path d="M120.595 38.9043C120.555 38.0113 119.792 37.2803 118.898 37.2803H117.151C116.256 37.2803 115.463 36.5523 115.382 35.6613L112.481 3.14929C112.401 2.25829 111.603 1.53027 110.711 1.53027H74.571C73.677 1.53027 72.881 2.25829 72.801 3.14929L69.899 35.6613C69.819 36.5523 69.023 37.2803 68.129 37.2803H66.381C65.487 37.2803 64.723 38.0113 64.683 38.9043L63.193 71.9483C63.153 72.8413 63.85 73.5723 64.745 73.5723H120.535C121.43 73.5723 122.127 72.8413 122.087 71.9483L120.487 38.9083L120.595 38.9043Z" stroke="#1D3565" stroke-width="2"/>
<path d="M120.595 38.9043C120.555 38.0113 119.792 37.2803 118.898 37.2803H117.151C116.256 37.2803 115.463 36.5523 115.382 35.6613L112.481 3.14929C112.401 2.25829 111.603 1.53027 110.711 1.53027H74.571C73.677 1.53027 72.881 2.25829 72.801 3.14929L69.899 35.6613C69.819 36.5523 69.023 37.2803 68.129 37.2803H66.381C65.487 37.2803 64.723 38.0113 64.683 38.9043L63.193 71.9483C63.153 72.8413 63.85 73.5723 64.745 73.5723H120.535C121.43 73.5723 122.127 72.8413 122.087 71.9483L120.487 38.9083L120.595 38.9043Z" fill="#C8C3C1" stroke="#1D3565" stroke-width="2"/>
<path d="M110.095 37.0643C108.931 25.2743 107.765 13.4863 106.602 1.69727" stroke="#1D3565" stroke-width="2"/>
<path d="M102.995 37.0643C102.297 25.2743 101.598 13.4863 100.899 1.69727" stroke="#1D3565" stroke-width="2"/>
<path d="M95.9949 37.0643C95.7639 25.2743 95.5309 13.4863 95.2979 1.69727" stroke="#1D3565" stroke-width="2"/>
<path d="M88.8945 37.0643C89.1275 25.2743 89.3616 13.4863 89.5936 1.69727" stroke="#1D3565" stroke-width="2"/>
<path d="M81.8945 37.0643C82.5935 25.2743 83.2906 13.4863 83.9896 1.69727" stroke="#1D3565" stroke-width="2"/>
<path d="M74.8945 37.0643C76.0585 25.2743 77.2236 13.4863 78.3866 1.69727" stroke="#1D3565" stroke-width="2"/>
</svg>
