<svg width="130" height="427" viewBox="0 0 130 427" fill="none" xmlns="http://www.w3.org/2000/svg">
<path d="M98.0296 425.736H31.8726C8.37765 425.736 1.05957 422.399 1.05957 401.537V208.751C1.05957 163.468 11.4251 152.298 20.5676 142.444C27.819 134.632 34.081 127.883 33.6635 104.815C33.0902 72.95 36.1601 54.0584 37.9927 42.7729C39.1811 35.4603 39.8963 31.0477 38.9153 28.1032C38.5562 27.0303 37.7421 26.1911 36.9545 25.3812C35.524 23.9062 33.7442 22.0763 35.6632 19.0191C36.2935 18.0116 37.3053 16.9081 38.7483 15.6488C41.0569 13.6018 40.5002 12.81 40.201 12.3828C39.8322 11.7956 39.2145 11.2487 38.6175 10.7185C38.0483 10.2133 37.4569 9.68875 37.0158 9.10152C35.4016 6.32676 38.0845 3.92913 40.2345 2.36086C40.4627 2.21753 40.6477 2.13685 40.8579 2.06588C43.3905 1.26157 54.7775 0.869115 64.9442 0.831543C75.1164 0.867723 86.5021 1.26153 89.0264 2.06028C89.249 2.13681 89.4355 2.21753 89.59 2.31355C91.8192 3.93331 94.4951 6.32953 92.9547 8.99713C92.4398 9.68873 91.8554 10.2092 91.2863 10.7143C90.6893 11.2445 90.0687 11.7928 89.7277 12.3382C89.4021 12.8044 88.8538 13.5865 91.0553 15.5555C92.7084 17.0083 93.7617 18.1911 94.3782 19.2654C96.0494 22.171 94.3267 23.9494 92.9435 25.3785C92.1587 26.1884 91.3418 27.0289 90.9856 28.1032C90.006 31.0449 90.7213 35.4575 91.9083 42.7673C92.387 45.7021 92.9255 49.0307 93.4682 52.9423L93.51 53.2303L93.6352 54.1697C95.7211 69.6493 96.57 86.2185 96.236 104.817C96.2235 105.626 96.2165 106.424 96.2165 107.199C96.2652 128.367 102.32 134.892 109.33 142.445C116.31 149.967 124.219 158.49 127.391 182.969C127.504 183.862 127.614 184.772 127.717 185.703C127.82 186.636 127.915 187.589 128.006 188.567C128.56 194.612 128.841 201.404 128.841 208.754V401.54C128.841 403.424 128.786 405.101 128.677 406.662C127.425 422.665 119.632 425.587 97.924 425.587L98.0296 425.736Z" fill="#C8C3C1"/>
<path d="M65.0509 1.87024C75.8243 1.90642 86.5822 2.34059 88.8129 3.0475C88.9493 3.09481 89.0663 3.1449 89.1497 3.19639L89.1553 3.19919C92.5396 5.6678 92.8707 7.22216 92.1527 8.46481C91.3122 9.57944 89.712 10.5522 88.9452 11.7753C88.1576 12.8955 88.1437 14.255 90.4592 16.3257C90.4968 16.3591 90.5274 16.3925 90.5678 16.4259C92.1041 17.7701 93.046 18.8569 93.5734 19.7768C95.6468 23.3864 91.2231 24.3786 90.0945 27.767C88.6209 32.1866 90.5969 39.1207 92.5354 53.0765C92.5896 53.4745 92.6467 53.8795 92.701 54.29C94.247 65.7786 95.7039 81.8426 95.2906 104.789C95.2767 105.609 95.2711 106.408 95.2711 107.188C95.3713 150.095 120.162 134.511 126.456 183.095C126.57 183.978 126.678 184.883 126.779 185.808C126.882 186.735 126.978 187.684 127.067 188.655C127.6 194.483 127.896 201.125 127.896 208.745V401.53C127.896 403.348 127.845 405.026 127.736 406.578C126.67 421.58 119.966 424.684 98.1281 424.684H31.9724C7.87349 424.684 2.20283 420.905 2.20283 401.53V208.745C2.20283 127.472 35.7518 157.24 34.8069 104.791C33.8635 52.3404 42.6997 35.8491 40.0057 27.7684C38.8535 24.3132 34.2712 23.353 36.6466 19.5652C37.1962 18.6913 38.1146 17.6671 39.5326 16.4259C39.5549 16.4078 39.5673 16.3925 39.5868 16.3744C41.9594 14.276 41.9484 12.9053 41.1552 11.7753C40.3885 10.5522 38.7881 9.58089 37.9476 8.46625C37.2296 7.22221 37.5594 5.66783 40.9478 3.19783V3.19639C41.0327 3.1449 41.1497 3.09481 41.2846 3.0475C43.372 2.57437 54.0869 2.12909 64.941 2.10125M64.941 0.0139291H64.9271C62.8189 0.0208868 44.2319 0.118317 40.5415 1.28861C40.1964 1.40828 39.9556 1.51824 39.7468 1.64627L39.6745 1.69077L39.605 1.74224C38.1787 2.78173 33.837 5.94609 36.0259 9.74085L36.0913 9.85084L36.1679 9.95378C36.673 10.6231 37.3006 11.1797 37.9073 11.7183C38.4514 12.2011 39.0135 12.698 39.2737 13.1154L39.303 13.1613L39.3335 13.2058C39.4198 13.3296 39.4338 13.3853 39.4338 13.3853C39.4324 13.3853 39.374 13.9058 38.0896 15.0399L38.0381 15.0858L38.0089 15.115C36.5074 16.43 35.4456 17.599 34.7638 18.683C32.4121 22.4332 34.7764 24.8698 36.1888 26.3254C36.9277 27.088 37.6276 27.8074 37.9101 28.6562C38.809 31.353 38.1077 35.6711 36.9457 42.8236C35.1075 54.1453 32.0294 73.0926 32.6041 105.057C33.0132 127.704 26.8849 134.308 19.788 141.956C10.5133 151.952 0 163.279 0 208.973V401.759C0 423.351 7.95419 427 31.8568 427H98.0126C119.358 427 128.478 424.214 129.702 406.955C129.814 405.364 129.868 403.666 129.868 401.76V208.975C129.868 201.597 129.587 194.774 129.03 188.696C128.94 187.709 128.842 186.747 128.737 185.808C128.636 184.873 128.526 183.955 128.41 183.057C125.195 158.246 117.164 149.592 110.079 141.958C103.217 134.564 97.2916 128.178 97.2415 107.414C97.2415 106.65 97.2471 105.864 97.2611 105.055C97.5964 86.3986 96.7434 69.7766 94.6519 54.2427L94.542 53.4342L94.4863 53.0251C93.9408 49.0981 93.3995 45.764 92.9208 42.8236C91.7588 35.6725 91.0575 31.3572 91.9578 28.659C92.2403 27.8102 92.9388 27.0893 93.6764 26.3254C95.0415 24.9157 97.3279 22.5557 95.267 18.9683C94.5935 17.7938 93.4677 16.5233 91.8257 15.0858L91.7964 15.058L91.7324 14.9995C90.512 13.9099 90.4382 13.4006 90.4355 13.3756C90.4369 13.3756 90.455 13.32 90.533 13.2072L90.5649 13.1613L90.5941 13.1154C90.8557 12.698 91.4166 12.1998 91.9593 11.7169C92.5661 11.1784 93.1936 10.6231 93.6988 9.95242L93.7752 9.8494L93.8406 9.73949C96.0267 5.94752 91.6894 2.78309 90.2644 1.7436L90.1961 1.69357L90.1168 1.64627C89.9081 1.51824 89.6674 1.40825 89.3808 1.30806C85.4844 0.0974119 66.9768 0 64.8895 0L64.941 0.0139291Z" fill="#1D3565"/>
<path d="M2.15332 208.793V330.703H127.847V208.793C127.847 208.475 127.844 208.163 127.844 207.847H2.15621V208.821L2.15332 208.793Z" stroke="#1D3565" stroke-width="2"/>
<path d="M5.35358 417.387C20.6231 413.872 26.7627 401.539 65.136 401.539C103.743 401.539 109.275 414.02 124.619 417.45" stroke="#1D3565" stroke-width="2"/>
<path d="M101.09 413.987C102.244 413.987 103.18 412.083 103.18 409.734C103.18 407.385 102.244 405.481 101.09 405.481C99.9355 405.481 98.9996 407.385 98.9996 409.734C98.9996 412.083 99.9355 413.987 101.09 413.987Z" fill="#C8C3C1" stroke="#1D3565" stroke-width="2"/>
<path d="M86.6178 413.987C87.7714 413.987 88.7065 412.083 88.7065 409.734C88.7065 407.385 87.7714 405.481 86.6178 405.481C85.4642 405.481 84.5291 407.385 84.5291 409.734C84.5291 412.083 85.4642 413.987 86.6178 413.987Z" fill="#C8C3C1" stroke="#1D3565" stroke-width="2"/>
<path d="M57.8129 413.987C58.9673 413.987 59.9032 412.083 59.9032 409.734C59.9032 407.385 58.9673 405.481 57.8129 405.481C56.6586 405.481 55.7229 407.385 55.7229 409.734C55.7229 412.083 56.6586 413.987 57.8129 413.987Z" fill="#C8C3C1" stroke="#1D3565" stroke-width="2"/>
<path d="M115.562 413.987C116.716 413.987 117.652 412.083 117.652 409.734C117.652 407.385 116.716 405.481 115.562 405.481C114.408 405.481 113.472 407.385 113.472 409.734C113.472 412.083 114.408 413.987 115.562 413.987Z" fill="#C8C3C1" stroke="#1D3565" stroke-width="2"/>
<path d="M43.3412 413.987C44.4948 413.987 45.4299 412.083 45.4299 409.734C45.4299 407.385 44.4948 405.481 43.3412 405.481C42.1877 405.481 41.2524 407.385 41.2524 409.734C41.2524 412.083 42.1877 413.987 43.3412 413.987Z" fill="#C8C3C1" stroke="#1D3565" stroke-width="2"/>
<path d="M28.8687 413.987C30.0223 413.987 30.9574 412.083 30.9574 409.734C30.9574 407.385 30.0223 405.481 28.8687 405.481C27.7151 405.481 26.78 407.385 26.78 409.734C26.78 412.083 27.7151 413.987 28.8687 413.987Z" fill="#C8C3C1" stroke="#1D3565" stroke-width="2"/>
<path d="M14.5363 413.987C15.6906 413.987 16.6265 412.083 16.6265 409.734C16.6265 407.385 15.6906 405.481 14.5363 405.481C13.3819 405.481 12.4462 407.385 12.4462 409.734C12.4462 412.083 13.3819 413.987 14.5363 413.987Z" fill="#C8C3C1" stroke="#1D3565" stroke-width="2"/>
<path d="M72.2853 413.987C73.4396 413.987 74.3755 412.083 74.3755 409.734C74.3755 407.385 73.4396 405.481 72.2853 405.481C71.131 405.481 70.1953 407.385 70.1953 409.734C70.1953 412.083 71.131 413.987 72.2853 413.987Z" fill="#C8C3C1" stroke="#1D3565" stroke-width="2"/>
<path d="M37.36 7.24121H92.7438" stroke="#1D3565" stroke-width="2"/>
<path d="M41.2565 12.7244H88.7084" stroke="#1D3565" stroke-width="2"/>
<path d="M35.6906 20.823H94.414" stroke="#1D3565" stroke-width="2"/>
</svg>
