<svg width="485" height="186" viewBox="0 0 485 186" fill="none" xmlns="http://www.w3.org/2000/svg">
<g filter="url(#filter0_di_319_2)">
<path d="M478.243 117.731C482.272 121.361 481.025 127.577 476.517 130.593C456.326 144.099 383.943 156.07 364.733 159.061C361.579 159.552 358.466 159.702 355.276 159.585C335.906 158.871 262.96 156.883 242.852 166.474C188.772 192.269 120.046 166.474 113.286 159.777C106.526 153.08 4 139.326 4 124.557C4 111.734 44.696 82.2671 96.3862 74.5781C137.203 68.5065 171.631 102.239 238.801 83.803C241.485 83.0664 244.085 81.9842 246.655 80.916C278.977 67.4825 332.74 74.043 382.558 81.8924C424.099 88.4375 465.76 106.484 478.243 117.731Z" fill="#3F99E2"/>
</g>
<g filter="url(#filter1_di_319_2)">
<path d="M441.911 113.923C446.025 117.465 444.826 123.663 440.245 126.574C420.994 138.811 355.984 149.613 337.843 152.444C334.693 152.936 331.552 153.09 328.365 152.975C309.946 152.306 243.261 150.55 224.793 159.349C174.802 183.166 111.272 159.349 105.023 153.165C98.7745 146.981 4 134.282 4 120.645C4 108.805 41.6192 81.5981 89.4012 74.4986C127.072 68.9016 158.854 99.9383 220.749 83.0981C223.432 82.3681 226.023 81.2853 228.597 80.2317C258.506 67.986 308.033 74.0278 353.937 81.252C391.824 87.2147 429.82 103.515 441.911 113.923Z" fill="url(#paint0_linear_319_2)" shape-rendering="crispEdges"/>
</g>
<g filter="url(#filter2_dd_319_2)">
<path d="M341.659 107.246C341.786 107.234 341.915 107.254 342.033 107.305C349.785 110.706 355.147 119.073 353.657 122.712C352.155 126.378 342.876 129.103 332.434 132.083C321.992 135.064 308.652 133.422 292.129 134.901C275.606 136.379 257.368 136.932 239.288 136.503C221.208 136.075 203.938 134.68 189.251 132.462C174.563 130.243 162.989 127.282 155.715 123.882C148.442 120.481 145.732 116.764 147.863 113.112C149.923 109.585 156.428 106.241 166.74 103.401C167.411 103.216 168.126 103.452 168.562 103.995V103.995C169.357 104.986 168.869 106.466 167.644 106.798C159.339 109.048 157.578 109.911 155.702 113.123C153.645 116.648 151.965 120.321 158.985 123.603C166.005 126.885 177.176 129.743 191.351 131.884C205.527 134.025 222.195 135.371 239.645 135.785C257.095 136.199 274.697 135.665 290.644 134.238C306.591 132.811 320.308 130.543 330.386 127.666C340.464 124.79 346.539 121.408 347.989 117.869C349.249 114.794 346.977 111.697 341.389 108.817C340.678 108.45 340.863 107.321 341.659 107.246V107.246Z" fill="#D9D9D9" fill-opacity="0.2" shape-rendering="crispEdges"/>
</g>
<g filter="url(#filter3_d_319_2)">
<path d="M212.207 99.3765C212.007 99.322 211.795 99.3756 211.657 99.5266C208.57 102.909 206.367 110.982 206.901 114.583C207.447 118.273 211.132 121.142 215.281 124.286C219.43 127.429 224.815 125.997 231.43 127.734C238.045 129.471 245.363 130.311 252.634 130.166C259.905 130.021 266.865 128.897 272.8 126.91C278.736 124.923 283.432 122.144 286.407 118.858C289.383 115.573 290.529 111.899 289.73 108.215C289.034 105.006 286.883 101.891 283.463 99.109C282.68 98.4715 281.537 98.8316 281.214 99.7759V99.7759C280.995 100.413 281.232 101.125 281.786 101.523C285.17 103.954 285.87 104.83 286.58 108.103C287.352 111.659 287.97 115.357 285.098 118.528C282.227 121.699 277.694 124.381 271.965 126.299C266.237 128.217 259.519 129.302 252.502 129.442C245.485 129.582 238.421 128.772 232.037 127.095C225.652 125.418 220.177 122.936 216.173 119.902C212.169 116.868 209.78 113.392 209.253 109.831C208.766 106.543 209.883 103.291 212.493 100.361C212.786 100.033 212.636 99.4939 212.207 99.3765V99.3765Z" fill="#D9D9D9" fill-opacity="0.2" shape-rendering="crispEdges"/>
</g>
<g filter="url(#filter4_d_319_2)">
<path d="M315.218 14.3417C313.695 16.8295 312.418 19.5808 310.971 22.1506C305.412 32.0274 299.35 46.7992 296.001 63.3606C295.776 64.4728 296.934 65.3674 297.496 64.5325C315.37 37.9771 322.031 44.1289 329.222 37.901C331.694 35.7608 333.419 32.4187 334.163 28.5424C335.693 20.57 334.036 12.5417 329.711 9.02804C325.201 5.36494 319.234 7.78012 315.218 14.3417Z" fill="#3F99E2"/>
</g>
<g filter="url(#filter5_d_319_2)">
<path d="M209.426 47.0659C210.789 49.3146 211.922 51.8108 213.191 54.1592C217.54 62.2091 222.333 73.905 225.329 86.8856C225.587 88.0063 224.402 88.9204 223.838 88.0554C210.131 67.0365 205.158 70.9835 199.659 66.0173C197.462 64.0341 195.943 60.9849 195.261 57.4976C194.002 51.066 195.096 44.8206 198.275 42.2382C201.604 39.5333 206.173 41.6995 209.426 47.0659Z" fill="#3F99E2"/>
</g>
<path d="M341.248 108.462C341.248 111.037 339.377 113.125 337.069 113.125C334.762 113.125 332.891 111.037 332.891 108.462C332.891 105.886 335.623 98.5003 337.069 96.7324C338.516 98.5003 341.248 105.886 341.248 108.462Z" fill="#3F99E2"/>
<path d="M179 104.743C179 90.9272 187.531 99.8126 201 99.8126C215.816 99.8126 223 90.9272 223 104.743C223 118.559 215.367 129.759 201 129.759C187.98 129.759 179 118.559 179 104.743Z" fill="black"/>
<ellipse cx="205.783" cy="116.417" rx="9.56521" ry="8.33858" transform="rotate(-180 205.783 116.417)" fill="white"/>
<path d="M264 104.743C264 90.9272 272.531 99.8126 286 99.8126C300.816 99.8126 308 90.9272 308 104.743C308 118.559 300.367 129.759 286 129.759C272.98 129.759 264 118.559 264 104.743Z" fill="black"/>
<ellipse cx="290.783" cy="116.417" rx="9.56521" ry="8.33858" transform="rotate(-180 290.783 116.417)" fill="white"/>
<defs>
<filter id="filter0_di_319_2" x="0" y="73.1846" width="484.677" height="112.521" filterUnits="userSpaceOnUse" color-interpolation-filters="sRGB">
<feFlood flood-opacity="0" result="BackgroundImageFix"/>
<feColorMatrix in="SourceAlpha" type="matrix" values="0 0 0 0 0 0 0 0 0 0 0 0 0 0 0 0 0 0 127 0" result="hardAlpha"/>
<feOffset dy="4"/>
<feGaussianBlur stdDeviation="2"/>
<feComposite in2="hardAlpha" operator="out"/>
<feColorMatrix type="matrix" values="0 0 0 0 0 0 0 0 0 0 0 0 0 0 0 0 0 0 0.25 0"/>
<feBlend mode="normal" in2="BackgroundImageFix" result="effect1_dropShadow_319_2"/>
<feBlend mode="normal" in="SourceGraphic" in2="effect1_dropShadow_319_2" result="shape"/>
<feColorMatrix in="SourceAlpha" type="matrix" values="0 0 0 0 0 0 0 0 0 0 0 0 0 0 0 0 0 0 127 0" result="hardAlpha"/>
<feOffset dy="4"/>
<feGaussianBlur stdDeviation="2"/>
<feComposite in2="hardAlpha" operator="arithmetic" k2="-1" k3="1"/>
<feColorMatrix type="matrix" values="0 0 0 0 0 0 0 0 0 0 0 0 0 0 0 0 0 0 0.15 0"/>
<feBlend mode="normal" in2="shape" result="effect2_innerShadow_319_2"/>
</filter>
<filter id="filter1_di_319_2" x="0" y="73.2119" width="448.426" height="104.507" filterUnits="userSpaceOnUse" color-interpolation-filters="sRGB">
<feFlood flood-opacity="0" result="BackgroundImageFix"/>
<feColorMatrix in="SourceAlpha" type="matrix" values="0 0 0 0 0 0 0 0 0 0 0 0 0 0 0 0 0 0 127 0" result="hardAlpha"/>
<feOffset dy="4"/>
<feGaussianBlur stdDeviation="2"/>
<feComposite in2="hardAlpha" operator="out"/>
<feColorMatrix type="matrix" values="0 0 0 0 0 0 0 0 0 0 0 0 0 0 0 0 0 0 0.25 0"/>
<feBlend mode="normal" in2="BackgroundImageFix" result="effect1_dropShadow_319_2"/>
<feBlend mode="normal" in="SourceGraphic" in2="effect1_dropShadow_319_2" result="shape"/>
<feColorMatrix in="SourceAlpha" type="matrix" values="0 0 0 0 0 0 0 0 0 0 0 0 0 0 0 0 0 0 127 0" result="hardAlpha"/>
<feOffset dy="4"/>
<feGaussianBlur stdDeviation="2"/>
<feComposite in2="hardAlpha" operator="arithmetic" k2="-1" k3="1"/>
<feColorMatrix type="matrix" values="0 0 0 0 0 0 0 0 0 0 0 0 0 0 0 0 0 0 0.15 0"/>
<feBlend mode="normal" in2="shape" result="effect2_innerShadow_319_2"/>
</filter>
<filter id="filter2_dd_319_2" x="143.156" y="103.339" width="214.75" height="41.3057" filterUnits="userSpaceOnUse" color-interpolation-filters="sRGB">
<feFlood flood-opacity="0" result="BackgroundImageFix"/>
<feColorMatrix in="SourceAlpha" type="matrix" values="0 0 0 0 0 0 0 0 0 0 0 0 0 0 0 0 0 0 127 0" result="hardAlpha"/>
<feOffset dy="4"/>
<feGaussianBlur stdDeviation="2"/>
<feComposite in2="hardAlpha" operator="out"/>
<feColorMatrix type="matrix" values="0 0 0 0 0 0 0 0 0 0 0 0 0 0 0 0 0 0 0.25 0"/>
<feBlend mode="normal" in2="BackgroundImageFix" result="effect1_dropShadow_319_2"/>
<feColorMatrix in="SourceAlpha" type="matrix" values="0 0 0 0 0 0 0 0 0 0 0 0 0 0 0 0 0 0 127 0" result="hardAlpha"/>
<feOffset dy="4"/>
<feGaussianBlur stdDeviation="2"/>
<feComposite in2="hardAlpha" operator="out"/>
<feColorMatrix type="matrix" values="0 0 0 0 0 0 0 0 0 0 0 0 0 0 0 0 0 0 0.25 0"/>
<feBlend mode="normal" in2="effect1_dropShadow_319_2" result="effect2_dropShadow_319_2"/>
<feBlend mode="normal" in="SourceGraphic" in2="effect2_dropShadow_319_2" result="shape"/>
</filter>
<filter id="filter3_d_319_2" x="202.821" y="98.7886" width="91.1565" height="39.3931" filterUnits="userSpaceOnUse" color-interpolation-filters="sRGB">
<feFlood flood-opacity="0" result="BackgroundImageFix"/>
<feColorMatrix in="SourceAlpha" type="matrix" values="0 0 0 0 0 0 0 0 0 0 0 0 0 0 0 0 0 0 127 0" result="hardAlpha"/>
<feOffset dy="4"/>
<feGaussianBlur stdDeviation="2"/>
<feComposite in2="hardAlpha" operator="out"/>
<feColorMatrix type="matrix" values="0 0 0 0 0 0 0 0 0 0 0 0 0 0 0 0 0 0 0.25 0"/>
<feBlend mode="normal" in2="BackgroundImageFix" result="effect1_dropShadow_319_2"/>
<feBlend mode="normal" in="SourceGraphic" in2="effect1_dropShadow_319_2" result="shape"/>
</filter>
<filter id="filter4_d_319_2" x="291.973" y="7.31543" width="46.7488" height="65.5449" filterUnits="userSpaceOnUse" color-interpolation-filters="sRGB">
<feFlood flood-opacity="0" result="BackgroundImageFix"/>
<feColorMatrix in="SourceAlpha" type="matrix" values="0 0 0 0 0 0 0 0 0 0 0 0 0 0 0 0 0 0 127 0" result="hardAlpha"/>
<feOffset dy="4"/>
<feGaussianBlur stdDeviation="2"/>
<feComposite in2="hardAlpha" operator="out"/>
<feColorMatrix type="matrix" values="0 0 0 0 0 0 0 0 0 0 0 0 0 0 0 0 0 0 0.25 0"/>
<feBlend mode="normal" in2="BackgroundImageFix" result="effect1_dropShadow_319_2"/>
<feBlend mode="normal" in="SourceGraphic" in2="effect1_dropShadow_319_2" result="shape"/>
</filter>
<filter id="filter5_d_319_2" x="190.75" y="41.0732" width="38.6147" height="55.3247" filterUnits="userSpaceOnUse" color-interpolation-filters="sRGB">
<feFlood flood-opacity="0" result="BackgroundImageFix"/>
<feColorMatrix in="SourceAlpha" type="matrix" values="0 0 0 0 0 0 0 0 0 0 0 0 0 0 0 0 0 0 127 0" result="hardAlpha"/>
<feOffset dy="4"/>
<feGaussianBlur stdDeviation="2"/>
<feComposite in2="hardAlpha" operator="out"/>
<feColorMatrix type="matrix" values="0 0 0 0 0 0 0 0 0 0 0 0 0 0 0 0 0 0 0.25 0"/>
<feBlend mode="normal" in2="BackgroundImageFix" result="effect1_dropShadow_319_2"/>
<feBlend mode="normal" in="SourceGraphic" in2="effect1_dropShadow_319_2" result="shape"/>
</filter>
<linearGradient id="paint0_linear_319_2" x1="224.93" y1="92.5132" x2="224.93" y2="169.719" gradientUnits="userSpaceOnUse">
<stop stop-color="#2A79BD"/>
<stop offset="1" stop-color="#2A89DA" stop-opacity="0"/>
</linearGradient>
</defs>
</svg>
