<svg width="690" height="186" viewBox="0 0 690 186" fill="none" xmlns="http://www.w3.org/2000/svg">
<g filter="url(#filter0_di_310_271)">
<path d="M681.628 117.122C687.573 120.652 685.88 128.012 679.578 130.857C648.437 144.921 537.152 157.261 516.7 159.437C514.477 159.674 512.338 159.74 510.103 159.677C489.126 159.089 375.941 156.423 345.788 166.474C268.402 192.269 170.058 166.474 160.384 159.777C150.711 153.08 4 139.326 4 124.557C4 111.734 62.2345 82.2671 136.201 74.5781C195.772 68.3857 245.831 103.598 345.788 82.6392C391.27 66.9557 471.541 73.7266 545.703 81.8924C604.084 88.3206 662.633 105.843 681.628 117.122Z" fill="#3F99E2"/>
</g>
<g filter="url(#filter1_di_310_271)">
<path d="M629.692 113.372C635.701 116.802 634.069 124.073 627.714 126.809C598.028 139.59 497.611 150.756 478.203 152.823C475.982 153.059 473.849 153.129 471.617 153.067C451.665 152.511 347.716 150.103 319.947 159.349C248.412 183.166 157.503 159.349 148.561 153.165C139.619 146.981 4 134.282 4 120.645C4 108.805 57.8316 81.5981 126.206 74.4986C181.273 68.781 227.547 101.293 319.947 81.9416C361.99 67.4606 436.192 73.7124 504.746 81.252C558.013 87.1104 611.431 102.948 629.692 113.372Z" fill="url(#paint0_linear_310_271)" shape-rendering="crispEdges"/>
</g>
<g filter="url(#filter2_dd_310_271)">
<path d="M487.312 107.237C487.407 107.231 487.503 107.242 487.594 107.269C498.751 110.646 506.486 119.06 504.346 122.712C502.196 126.378 488.918 129.103 473.976 132.083C459.034 135.064 439.945 133.422 416.302 134.901C392.658 136.379 366.561 136.932 340.689 136.503C314.817 136.075 290.104 134.68 269.087 132.462C248.07 130.243 231.507 127.282 221.099 123.882C210.691 120.481 206.813 116.764 209.863 113.112C212.858 109.527 222.425 106.132 237.604 103.262C238.14 103.161 238.696 103.311 239.107 103.669V103.669C240.235 104.651 239.724 106.503 238.254 106.781C226.297 109.043 223.771 109.903 221.081 113.123C218.137 116.648 215.732 120.321 225.778 123.603C235.823 126.885 251.808 129.743 272.093 131.884C292.377 134.025 316.229 135.371 341.199 135.785C366.17 136.199 391.358 135.665 414.177 134.238C436.996 132.811 456.625 130.543 471.046 127.666C485.467 124.79 494.161 121.408 496.236 117.869C498.015 114.834 494.87 111.777 487.1 108.929C486.26 108.621 486.419 107.296 487.312 107.237V107.237Z" fill="#D9D9D9" fill-opacity="0.2" shape-rendering="crispEdges"/>
</g>
<g filter="url(#filter3_d_310_271)">
<path d="M301.755 99.342C301.575 99.3077 301.39 99.3459 301.244 99.4552C296.777 102.794 293.574 110.956 294.343 114.583C295.124 118.273 300.398 121.142 306.335 124.286C312.271 127.429 319.977 125.997 329.443 127.734C338.909 129.471 349.382 130.311 359.786 130.166C370.189 130.021 380.149 128.897 388.643 126.91C397.136 124.923 403.857 122.144 408.114 118.858C412.371 115.573 414.012 111.899 412.868 108.215C411.817 104.829 408.449 101.547 403.074 98.6512C402.271 98.2188 401.279 98.5587 400.877 99.3774V99.3774C400.478 100.193 400.816 101.178 401.628 101.586C406.36 103.97 407.354 104.859 408.361 108.103C409.466 111.659 410.35 115.357 406.24 118.528C402.131 121.699 395.645 124.381 387.448 126.299C379.251 128.217 369.638 129.302 359.597 129.442C349.555 129.582 339.448 128.772 330.312 127.095C321.176 125.418 313.34 122.936 307.611 119.902C301.881 116.868 298.464 113.392 297.709 109.831C297.031 106.632 298.525 103.467 302.047 100.6C302.509 100.224 302.34 99.4537 301.755 99.342V99.342Z" fill="#D9D9D9" fill-opacity="0.2" shape-rendering="crispEdges"/>
</g>
<g filter="url(#filter4_d_310_271)">
<path d="M449.711 13.9293C447.237 16.6235 445.205 19.7102 442.927 22.5718C434.893 32.6603 426.195 47.6723 421.539 64.4326C421.263 65.4261 422.503 66.082 423.214 65.3352C448.974 38.2689 458.693 44.007 468.91 38.1778C472.752 35.9855 475.565 32.2066 476.615 27.9093C478.512 20.1481 476.105 12.4487 470.08 9.02804C463.764 5.44273 455.45 7.68028 449.711 13.9293Z" fill="#3F99E2"/>
</g>
<g filter="url(#filter5_d_310_271)">
<path d="M297.625 46.692C299.843 49.1309 301.641 51.9292 303.643 54.5479C309.973 62.8274 316.903 74.8163 321.091 88.0532C321.41 89.0617 320.134 89.74 319.418 88.9611C299.529 67.3172 292.222 70.9143 284.407 66.2789C280.974 64.2424 278.501 60.7954 277.535 56.9224C275.982 50.6966 277.587 44.7435 282 42.2382C286.652 39.597 292.996 41.6002 297.625 46.692Z" fill="#3F99E2"/>
</g>
<path d="M341.248 108.462C341.248 111.037 339.377 113.125 337.069 113.125C334.762 113.125 332.891 111.037 332.891 108.462C332.891 105.886 335.623 98.5003 337.069 96.7324C338.516 98.5003 341.248 105.886 341.248 108.462Z" fill="#3F99E2"/>
<path d="M272 105.743C272 91.9272 280.531 100.813 294 100.813C308.816 100.813 316 91.9272 316 105.743C316 119.559 308.367 130.759 294 130.759C280.98 130.759 272 119.559 272 105.743Z" fill="black"/>
<ellipse cx="298.783" cy="117.417" rx="9.56521" ry="8.33858" transform="rotate(-180 298.783 117.417)" fill="white"/>
<path d="M357 105.743C357 91.9272 365.531 100.813 379 100.813C393.816 100.813 401 91.9272 401 105.743C401 119.559 393.367 130.759 379 130.759C365.98 130.759 357 119.559 357 105.743Z" fill="black"/>
<ellipse cx="383.783" cy="117.417" rx="9.56521" ry="8.33858" transform="rotate(-180 383.783 117.417)" fill="white"/>
<defs>
<filter id="filter0_di_310_271" x="0" y="73.1846" width="689.301" height="112.521" filterUnits="userSpaceOnUse" color-interpolation-filters="sRGB">
<feFlood flood-opacity="0" result="BackgroundImageFix"/>
<feColorMatrix in="SourceAlpha" type="matrix" values="0 0 0 0 0 0 0 0 0 0 0 0 0 0 0 0 0 0 127 0" result="hardAlpha"/>
<feOffset dy="4"/>
<feGaussianBlur stdDeviation="2"/>
<feComposite in2="hardAlpha" operator="out"/>
<feColorMatrix type="matrix" values="0 0 0 0 0 0 0 0 0 0 0 0 0 0 0 0 0 0 0.25 0"/>
<feBlend mode="normal" in2="BackgroundImageFix" result="effect1_dropShadow_310_271"/>
<feBlend mode="normal" in="SourceGraphic" in2="effect1_dropShadow_310_271" result="shape"/>
<feColorMatrix in="SourceAlpha" type="matrix" values="0 0 0 0 0 0 0 0 0 0 0 0 0 0 0 0 0 0 127 0" result="hardAlpha"/>
<feOffset dy="4"/>
<feGaussianBlur stdDeviation="2"/>
<feComposite in2="hardAlpha" operator="arithmetic" k2="-1" k3="1"/>
<feColorMatrix type="matrix" values="0 0 0 0 0 0 0 0 0 0 0 0 0 0 0 0 0 0 0.15 0"/>
<feBlend mode="normal" in2="shape" result="effect2_innerShadow_310_271"/>
</filter>
<filter id="filter1_di_310_271" x="0" y="73.2119" width="637.437" height="104.507" filterUnits="userSpaceOnUse" color-interpolation-filters="sRGB">
<feFlood flood-opacity="0" result="BackgroundImageFix"/>
<feColorMatrix in="SourceAlpha" type="matrix" values="0 0 0 0 0 0 0 0 0 0 0 0 0 0 0 0 0 0 127 0" result="hardAlpha"/>
<feOffset dy="4"/>
<feGaussianBlur stdDeviation="2"/>
<feComposite in2="hardAlpha" operator="out"/>
<feColorMatrix type="matrix" values="0 0 0 0 0 0 0 0 0 0 0 0 0 0 0 0 0 0 0.25 0"/>
<feBlend mode="normal" in2="BackgroundImageFix" result="effect1_dropShadow_310_271"/>
<feBlend mode="normal" in="SourceGraphic" in2="effect1_dropShadow_310_271" result="shape"/>
<feColorMatrix in="SourceAlpha" type="matrix" values="0 0 0 0 0 0 0 0 0 0 0 0 0 0 0 0 0 0 127 0" result="hardAlpha"/>
<feOffset dy="4"/>
<feGaussianBlur stdDeviation="2"/>
<feComposite in2="hardAlpha" operator="arithmetic" k2="-1" k3="1"/>
<feColorMatrix type="matrix" values="0 0 0 0 0 0 0 0 0 0 0 0 0 0 0 0 0 0 0.15 0"/>
<feBlend mode="normal" in2="shape" result="effect2_innerShadow_310_271"/>
</filter>
<filter id="filter2_dd_310_271" x="204.852" y="103.231" width="303.851" height="41.4136" filterUnits="userSpaceOnUse" color-interpolation-filters="sRGB">
<feFlood flood-opacity="0" result="BackgroundImageFix"/>
<feColorMatrix in="SourceAlpha" type="matrix" values="0 0 0 0 0 0 0 0 0 0 0 0 0 0 0 0 0 0 127 0" result="hardAlpha"/>
<feOffset dy="4"/>
<feGaussianBlur stdDeviation="2"/>
<feComposite in2="hardAlpha" operator="out"/>
<feColorMatrix type="matrix" values="0 0 0 0 0 0 0 0 0 0 0 0 0 0 0 0 0 0 0.25 0"/>
<feBlend mode="normal" in2="BackgroundImageFix" result="effect1_dropShadow_310_271"/>
<feColorMatrix in="SourceAlpha" type="matrix" values="0 0 0 0 0 0 0 0 0 0 0 0 0 0 0 0 0 0 127 0" result="hardAlpha"/>
<feOffset dy="4"/>
<feGaussianBlur stdDeviation="2"/>
<feComposite in2="hardAlpha" operator="out"/>
<feColorMatrix type="matrix" values="0 0 0 0 0 0 0 0 0 0 0 0 0 0 0 0 0 0 0.25 0"/>
<feBlend mode="normal" in2="effect1_dropShadow_310_271" result="effect2_dropShadow_310_271"/>
<feBlend mode="normal" in="SourceGraphic" in2="effect2_dropShadow_310_271" result="shape"/>
</filter>
<filter id="filter3_d_310_271" x="290.229" y="98.4629" width="126.994" height="39.7188" filterUnits="userSpaceOnUse" color-interpolation-filters="sRGB">
<feFlood flood-opacity="0" result="BackgroundImageFix"/>
<feColorMatrix in="SourceAlpha" type="matrix" values="0 0 0 0 0 0 0 0 0 0 0 0 0 0 0 0 0 0 127 0" result="hardAlpha"/>
<feOffset dy="4"/>
<feGaussianBlur stdDeviation="2"/>
<feComposite in2="hardAlpha" operator="out"/>
<feColorMatrix type="matrix" values="0 0 0 0 0 0 0 0 0 0 0 0 0 0 0 0 0 0 0.25 0"/>
<feBlend mode="normal" in2="BackgroundImageFix" result="effect1_dropShadow_310_271"/>
<feBlend mode="normal" in="SourceGraphic" in2="effect1_dropShadow_310_271" result="shape"/>
</filter>
<filter id="filter4_d_310_271" x="417.499" y="7.31543" width="63.7505" height="66.3418" filterUnits="userSpaceOnUse" color-interpolation-filters="sRGB">
<feFlood flood-opacity="0" result="BackgroundImageFix"/>
<feColorMatrix in="SourceAlpha" type="matrix" values="0 0 0 0 0 0 0 0 0 0 0 0 0 0 0 0 0 0 127 0" result="hardAlpha"/>
<feOffset dy="4"/>
<feGaussianBlur stdDeviation="2"/>
<feComposite in2="hardAlpha" operator="out"/>
<feColorMatrix type="matrix" values="0 0 0 0 0 0 0 0 0 0 0 0 0 0 0 0 0 0 0.25 0"/>
<feBlend mode="normal" in2="BackgroundImageFix" result="effect1_dropShadow_310_271"/>
<feBlend mode="normal" in="SourceGraphic" in2="effect1_dropShadow_310_271" result="shape"/>
</filter>
<filter id="filter5_d_310_271" x="272.957" y="41.0732" width="52.1843" height="56.2261" filterUnits="userSpaceOnUse" color-interpolation-filters="sRGB">
<feFlood flood-opacity="0" result="BackgroundImageFix"/>
<feColorMatrix in="SourceAlpha" type="matrix" values="0 0 0 0 0 0 0 0 0 0 0 0 0 0 0 0 0 0 127 0" result="hardAlpha"/>
<feOffset dy="4"/>
<feGaussianBlur stdDeviation="2"/>
<feComposite in2="hardAlpha" operator="out"/>
<feColorMatrix type="matrix" values="0 0 0 0 0 0 0 0 0 0 0 0 0 0 0 0 0 0 0.25 0"/>
<feBlend mode="normal" in2="BackgroundImageFix" result="effect1_dropShadow_310_271"/>
<feBlend mode="normal" in="SourceGraphic" in2="effect1_dropShadow_310_271" result="shape"/>
</filter>
<linearGradient id="paint0_linear_310_271" x1="320.143" y1="92.5132" x2="320.143" y2="169.719" gradientUnits="userSpaceOnUse">
<stop stop-color="#2A79BD"/>
<stop offset="1" stop-color="#2A89DA" stop-opacity="0"/>
</linearGradient>
</defs>
</svg>
