<svg width="12023" height="145" viewBox="0 0 12023 145" fill="none" xmlns="http://www.w3.org/2000/svg">
<path d="M0.534126 131.539L8.26718 14.617C89.8689 2.28625 170.899 7.68937 249.515 13.2594C251.039 13.3674 252.562 13.4754 254.085 13.5834C331.206 19.054 405.978 24.3578 476.539 12.7932C563.698 -1.49137 654.162 2.15523 745.299 6.8456C750.777 7.1275 756.257 7.41316 761.739 7.69893C847.448 12.167 933.609 16.6586 1017.95 7.1256L1020.17 6.87459C1066.74 1.60396 1125.56 -5.05243 1236.02 10.9042C1326.38 23.9581 1366.32 26.7202 1396.06 24.8302C1410.94 23.885 1423.25 21.7771 1438.01 19.2212L1438.68 19.1058C1453.29 16.5752 1470.38 13.6174 1494.74 10.9063C1584.33 0.937822 1675.6 -0.73806 1737.03 10.9006C1850.26 32.3498 1997.58 22.2026 2052.35 16.5777C2138.45 7.73336 2231.8 6.62211 2322.96 16.5774C2390.42 23.9447 2431.67 24.7168 2462.73 22.5484C2485.35 20.9695 2502.57 17.8297 2520.55 14.5525C2527.25 13.3304 2534.06 12.0893 2541.29 10.9028C2613.27 -0.906671 2681.46 -0.277862 2751.31 1.45774C2797.47 2.6049 2843.18 8.2553 2889.04 13.9249C2908.97 16.3885 2928.92 18.8558 2948.96 20.9587C3015.09 27.8988 3082.03 30.8624 3151.44 16.5701C3199.54 6.66457 3256.58 8.89437 3303.39 12.7286C3317.52 13.8864 3330.7 15.1884 3342.42 16.3463C3350.12 17.1066 3357.18 17.8047 3363.48 18.3592C3371.41 19.0577 3378.11 19.5275 3383.27 19.601C3385.86 19.6377 3388.06 19.5757 3389.85 19.3914C3391.63 19.2083 3393.04 18.9004 3394 18.4174C3395.07 17.8831 3397.01 17.3308 3399.8 16.7785C3402.57 16.2294 3406.13 15.6886 3410.41 15.1616C3418.95 14.1078 3430.32 13.1119 3443.83 12.2125C3470.86 10.4139 3506.46 9.00237 3545.27 8.28224C3622.89 6.84189 3713.3 8.16802 3773.54 14.6871C3854.3 23.4261 3940.25 22.63 4023.62 10.9837L4024.6 135.548L0.534126 131.539Z" fill="url(#paint0_linear_307_123)" stroke="black"/>
<path d="M3985.53 135.539L3993.27 18.617C4074.87 6.28625 4155.9 11.6894 4234.51 17.2594C4236.04 17.3674 4237.56 17.4754 4239.08 17.5834C4316.21 23.054 4390.98 28.3578 4461.54 16.7932C4548.7 2.50863 4639.16 6.15523 4730.3 10.8456C4735.78 11.1275 4741.26 11.4132 4746.74 11.6989C4832.45 16.167 4918.61 20.6586 5002.95 11.1256L5005.17 10.8746C5051.74 5.60396 5110.56 -1.05243 5221.02 14.9042C5311.38 27.9581 5351.32 30.7202 5381.06 28.8302C5395.94 27.885 5408.25 25.7771 5423.01 23.2212L5423.68 23.1058C5438.29 20.5752 5455.38 17.6174 5479.74 14.9063C5569.33 4.93782 5660.6 3.26194 5722.03 14.9006C5835.26 36.3498 5982.58 26.2026 6037.35 20.5777C6123.45 11.7334 6216.8 10.6221 6307.96 20.5774C6375.42 27.9447 6416.67 28.7168 6447.73 26.5484C6470.35 24.9695 6487.57 21.8297 6505.55 18.5525C6512.25 17.3304 6519.06 16.0893 6526.29 14.9028C6598.27 3.09333 6666.46 3.72214 6736.31 5.45774C6782.47 6.6049 6828.18 12.2553 6874.04 17.9249C6893.97 20.3885 6913.92 22.8558 6933.96 24.9587C7000.09 31.8988 7067.03 34.8624 7136.44 20.5701C7184.54 10.6646 7241.58 12.8944 7288.39 16.7286C7302.52 17.8864 7315.7 19.1884 7327.42 20.3463C7335.12 21.1066 7342.18 21.8047 7348.48 22.3592C7356.41 23.0577 7363.11 23.5275 7368.27 23.601C7370.86 23.6377 7373.06 23.5757 7374.85 23.3914C7376.63 23.2083 7378.04 22.9004 7379 22.4174C7380.07 21.8831 7382.01 21.3308 7384.8 20.7785C7387.57 20.2294 7391.13 19.6886 7395.41 19.1616C7403.95 18.1078 7415.32 17.1119 7428.83 16.2125C7455.86 14.4139 7491.46 13.0024 7530.27 12.2822C7607.89 10.8419 7698.3 12.168 7758.54 18.6871C7839.3 27.4261 7925.25 26.63 8008.62 14.9837L8009.6 139.548L3985.53 135.539Z" fill="url(#paint1_linear_307_123)" stroke="black"/>
<path d="M7997.53 139.539L8005.27 22.617C8086.87 10.2862 8167.9 15.6894 8246.51 21.2594C8248.04 21.3674 8249.56 21.4754 8251.08 21.5834C8328.21 27.054 8402.98 32.3578 8473.54 20.7932C8560.7 6.50863 8651.16 10.1552 8742.3 14.8456C8747.78 15.1275 8753.26 15.4132 8758.74 15.6989C8844.45 20.167 8930.61 24.6586 9014.95 15.1256L9017.17 14.8746C9063.74 9.60396 9122.56 2.94757 9233.02 18.9042C9323.38 31.9581 9363.32 34.7202 9393.06 32.8302C9407.94 31.885 9420.25 29.7771 9435.01 27.2212L9435.68 27.1058C9450.29 24.5752 9467.38 21.6174 9491.74 18.9063C9581.33 8.93782 9672.6 7.26194 9734.03 18.9006C9847.26 40.3498 9994.58 30.2026 10049.3 24.5777C10135.5 15.7334 10228.8 14.6221 10320 24.5774C10387.4 31.9447 10428.7 32.7168 10459.7 30.5484C10482.4 28.9695 10499.6 25.8297 10517.5 22.5525C10524.2 21.3304 10531.1 20.0893 10538.3 18.9028C10610.3 7.09333 10678.5 7.72214 10748.3 9.45774C10794.5 10.6049 10840.2 16.2553 10886 21.9249C10906 24.3885 10925.9 26.8558 10946 28.9587C11012.1 35.8988 11079 38.8624 11148.4 24.5701C11196.5 14.6646 11253.6 16.8944 11300.4 20.7286C11314.5 21.8864 11327.7 23.1884 11339.4 24.3463C11347.1 25.1066 11354.2 25.8047 11360.5 26.3592C11368.4 27.0577 11375.1 27.5275 11380.3 27.601C11382.9 27.6377 11385.1 27.5757 11386.9 27.3914C11388.6 27.2083 11390 26.9004 11391 26.4174C11392.1 25.8831 11394 25.3308 11396.8 24.7785C11399.6 24.2294 11403.1 23.6886 11407.4 23.1616C11416 22.1078 11427.3 21.1119 11440.8 20.2125C11467.9 18.4139 11503.5 17.0024 11542.3 16.2822C11619.9 14.8419 11710.3 16.168 11770.5 22.6871C11851.3 31.4261 11937.2 30.63 12020.6 18.9837L12021.6 143.548L7997.53 139.539Z" fill="url(#paint2_linear_307_123)" stroke="black"/>
<defs>
<linearGradient id="paint0_linear_307_123" x1="1839.98" y1="-133.666" x2="1840.49" y2="207.059" gradientUnits="userSpaceOnUse">
<stop stop-color="#636363"/>
<stop offset="1" stop-color="white"/>
</linearGradient>
<linearGradient id="paint1_linear_307_123" x1="5824.98" y1="-129.666" x2="5825.49" y2="211.059" gradientUnits="userSpaceOnUse">
<stop stop-color="#636363"/>
<stop offset="1" stop-color="white"/>
</linearGradient>
<linearGradient id="paint2_linear_307_123" x1="9836.98" y1="-125.666" x2="9837.49" y2="215.059" gradientUnits="userSpaceOnUse">
<stop stop-color="#636363"/>
<stop offset="1" stop-color="white"/>
</linearGradient>
</defs>
</svg>
